{
  "accessors": [
    {
      "bufferView": 2,
      "componentType": 5126,
      "count": 2640,
      "max": [
        742.6429443359375,
        90.199470520019531,
        9.5796737670898438
      ],
      "min": [
        -205.47215270996094,
        -421.75701904296875,
        -1126.206298828125
      ],
      "type": "VEC3"
    },
    {
      "bufferView": 2,
      "byteOffset": 31680,
      "componentType": 5126,
      "count": 2640,
      "max": [
        1,
        1,
        1
      ],
      "min": [
        -1,
        -1,
        -1
      ],
      "type": "VEC3"
    },
    {
      "bufferView": 3,
      "componentType": 5126,
      "count": 2640,
      "max": [
        1,
        1,
        1,
        1
      ],
      "min": [
        -1,
        -1,
        -1,
        -1
      ],
      "type": "VEC4"
    },
    {
      "bufferView": 1,
      "componentType": 5126,
      "count": 2640,
      "max": [
        1,
        1
      ],
      "min": [
        0,
        0
      ],
      "type": "VEC2"
    },
    {
      "bufferView": 0,
      "componentType": 5125,
      "count": 3936,
      "max": [
        2639
      ],
      "min": [
        0
      ],
      "type": "SCALAR"
    },
    {
      "bufferView": 2,
      "byteOffset": 63360,
      "componentType": 5126,
      "count": 238,
      "max": [
        4381.65966796875,
        328.7587890625,
        4016.48828125
      ],
      "min": [
        -2077.10888671875,
        -342.48052978515625,
        -996.02587890625
      ],
      "type": "VEC3"
    },
    {
      "bufferView": 2,
      "byteOffset": 66216,
      "componentType": 5126,
      "count": 238,
      "max": [
        1,
        1,
        1
      ],
      "min": [
        -1,
        -1,
        -1
      ],
      "type": "VEC3"
    },
    {
      "bufferView": 3,
      "byteOffset": 42240,
      "componentType": 5126,
      "count": 238,
      "max": [
        1,
        1,
        1,
        1
      ],
      "min": [
        -1,
        -1,
        -1,
        -1
      ],
      "type": "VEC4"
    },
    {
      "bufferView": 1,
      "byteOffset": 21120,
      "componentType": 5126,
      "count": 238,
      "max": [
        0.74041008949279785,
        0.99750155210494995
      ],
      "min": [
        0.50261098146438599,
        0.25222024321556091
      ],
      "type": "VEC2"
    },
    {
      "bufferView": 0,
      "byteOffset": 15744,
      "componentType": 5125,
      "count": 480,
      "max": [
        237
      ],
      "min": [
        0
      ],
      "type": "SCALAR"
    }
  ],
  "asset": {
    "extras": {
      "author": "LordGruny (https://sketchfab.com/lordgruny)",
      "license": "CC-BY-4.0 (http://creativecommons.org/licenses/by/4.0/)",
      "source": "https://sketchfab.com/3d-models/starbucks-coffee-a2081e0943c74ec49920c3180e20f349",
      "title": "Starbucks Coffee"
    },
    "generator": "Sketchfab-6.71.0",
    "version": "2.0"
  },
  "bufferViews": [
    {
      "buffer": 0,
      "byteLength": 17664,
      "byteOffset": 0,
      "name": "floatBufferViews",
      "target": 34963
    },
    {
      "buffer": 0,
      "byteLength": 23024,
      "byteOffset": 17664,
      "byteStride": 8,
      "name": "floatBufferViews",
      "target": 34962
    },
    {
      "buffer": 0,
      "byteLength": 69072,
      "byteOffset": 40688,
      "byteStride": 12,
      "name": "floatBufferViews",
      "target": 34962
    },
    {
      "buffer": 0,
      "byteLength": 46048,
      "byteOffset": 109760,
      "byteStride": 16,
      "name": "floatBufferViews",
      "target": 34962
    }
  ],
  "buffers": [
    {
      "byteLength": 155808,
      "uri": "scene.bin"
    }
  ],
  "extensionsRequired": [
    "KHR_materials_pbrSpecularGlossiness"
  ],
  "extensionsUsed": [
    "KHR_materials_pbrSpecularGlossiness"
  ],
  "images": [
    {
      "uri": "textures/Cube.010__0_diffuse.jpeg"
    },
    {
      "uri": "textures/Material.003_specularGlossiness.png"
    }
  ],
  "materials": [
    {
      "doubleSided": true,
      "extensions": {
        "KHR_materials_pbrSpecularGlossiness": {
          "diffuseFactor": [
            1,
            1,
            1,
            1
          ],
          "diffuseTexture": {
            "index": 0,
            "texCoord": 0
          },
          "glossinessFactor": 0.40000000000000002,
          "specularFactor": [
            0,
            0,
            0
          ]
        }
      },
      "name": "Cube.010__0"
    },
    {
      "doubleSided": true,
      "emissiveFactor": [
        0,
        0,
        0
      ],
      "extensions": {
        "KHR_materials_pbrSpecularGlossiness": {
          "diffuseFactor": [
            1,
            1,
            1,
            1
          ],
          "diffuseTexture": {
            "index": 0,
            "texCoord": 0
          },
          "glossinessFactor": 1,
          "specularFactor": [
            0.50171493902439024,
            0.50171493902439024,
            0.50171493902439024
          ],
          "specularGlossinessTexture": {
            "index": 1,
            "texCoord": 0
          }
        }
      },
      "name": "Material.003"
    }
  ],
  "meshes": [
    {
      "name": "Cylinder.001_Material.003_0",
      "primitives": [
        {
          "attributes": {
            "NORMAL": 1,
            "POSITION": 0,
            "TANGENT": 2,
            "TEXCOORD_0": 3
          },
          "indices": 4,
          "material": 1,
          "mode": 4
        }
      ]
    },
    {
      "name": "Cube.010__0",
      "primitives": [
        {
          "attributes": {
            "NORMAL": 6,
            "POSITION": 5,
            "TANGENT": 7,
            "TEXCOORD_0": 8
          },
          "indices": 9,
          "material": 0,
          "mode": 4
        }
      ]
    }
  ],
  "nodes": [
    {
      "children": [
        1
      ],
      "name": "RootNode (gltf orientation matrix)",
      "rotation": [
        -0.70710678118654746,
        -0,
        -0,
        0.70710678118654757
      ]
    },
    {
      "children": [
        2
      ],
      "name": "RootNode (model correction matrix)"
    },
    {
      "children": [
        3
      ],
      "matrix": [
        1,
        0,
        0,
        0,
        0,
        0,
        1,
        0,
        0,
        -1,
        0,
        0,
        0,
        0,
        0,
        1
      ],
      "name": "64876ab02a1243788b0fde880e17ff68.fbx"
    },
    {
      "children": [
        4,
        6
      ],
      "name": "RootNode"
    },
    {
      "children": [
        5
      ],
      "matrix": [
        0.84377944469451904,
        0,
        0,
        0,
        0,
        0.84377944469451904,
        0,
        0,
        0,
        0,
        0.84377944469451904,
        0,
        -226.62684631347656,
        355.86984252929688,
        6.081855297088623,
        1
      ],
      "name": "Cylinder.001"
    },
    {
      "mesh": 0,
      "name": "Cylinder.001_Material.003_0"
    },
    {
      "children": [
        7
      ],
      "matrix": [
        1.6764380861550052e-09,
        0,
        -0.022205095738172472,
        0,
        0.022205095738172406,
        1.6764380861550052e-09,
        1.6764380873876356e-09,
        0,
        1.6764380873876356e-09,
        -0.022205095738172472,
        1.232630427626254e-16,
        0,
        363.79718017578125,
        388.76321411132812,
        87.798194885253906,
        1
      ],
      "name": "Cube.010"
    },
    {
      "mesh": 1,
      "name": "Cube.010__0"
    }
  ],
  "samplers": [
    {
      "magFilter": 9729,
      "minFilter": 9987,
      "wrapS": 10497,
      "wrapT": 10497
    }
  ],
  "scene": 0,
  "scenes": [
    {
      "name": "OSG_Scene",
      "nodes": [
        0
      ]
    }
  ],
  "textures": [
    {
      "sampler": 0,
      "source": 0
    },
    {
      "sampler": 0,
      "source": 1
    }
  ]
}

