{
  "accessors": [
    {
      "bufferView": 2,
      "componentType": 5126,
      "count": 3528,
      "max": [
        190.3217315673828,
        4.078899383544922,
        41.15013885498047
      ],
      "min": [
        -351.81500244140625,
        -70.73596954345703,
        22.009653091430664
      ],
      "type": "VEC3"
    },
    {
      "bufferView": 2,
      "byteOffset": 42336,
      "componentType": 5126,
      "count": 3528,
      "max": [
        1.0,
        1.0,
        1.0
      ],
      "min": [
        -1.0,
        -1.0,
        -1.0
      ],
      "type": "VEC3"
    },
    {
      "bufferView": 1,
      "componentType": 5126,
      "count": 3528,
      "max": [
        1.0,
        1.0
      ],
      "min": [
        0.0,
        0.0
      ],
      "type": "VEC2"
    },
    {
      "bufferView": 0,
      "componentType": 5125,
      "count": 10056,
      "type": "SCALAR"
    },
    {
      "bufferView": 2,
      "byteOffset": 84672,
      "componentType": 5126,
      "count": 3528,
      "max": [
        351.81500244140625,
        4.078899383544922,
        118.50981140136719
      ],
      "min": [
        -190.3217315673828,
        -70.73596954345703,
        63.38641357421875
      ],
      "type": "VEC3"
    },
    {
      "bufferView": 2,
      "byteOffset": 127008,
      "componentType": 5126,
      "count": 3528,
      "max": [
        1.0,
        1.0,
        1.0
      ],
      "min": [
        -1.0,
        -1.0,
        -1.0
      ],
      "type": "VEC3"
    },
    {
      "bufferView": 1,
      "byteOffset": 28224,
      "componentType": 5126,
      "count": 3528,
      "max": [
        1.0,
        1.0
      ],
      "min": [
        0.0,
        0.0
      ],
      "type": "VEC2"
    },
    {
      "bufferView": 0,
      "byteOffset": 40224,
      "componentType": 5125,
      "count": 10044,
      "type": "SCALAR"
    },
    {
      "bufferView": 2,
      "byteOffset": 169344,
      "componentType": 5126,
      "count": 277,
      "max": [
        41.665775299072266,
        475.2589111328125,
        2.0198705446942966e-13
      ],
      "min": [
        -265.0452575683594,
        -7.057643890380859,
        -18.648265838623047
      ],
      "type": "VEC3"
    },
    {
      "bufferView": 2,
      "byteOffset": 172668,
      "componentType": 5126,
      "count": 277,
      "max": [
        0.9755911231040955,
        0.9593843221664429,
        1.0
      ],
      "min": [
        -0.9755906462669373,
        -1.0,
        -1.0
      ],
      "type": "VEC3"
    },
    {
      "bufferView": 1,
      "byteOffset": 56448,
      "componentType": 5126,
      "count": 277,
      "max": [
        1.0,
        1.0
      ],
      "min": [
        0.0,
        0.0
      ],
      "type": "VEC2"
    },
    {
      "bufferView": 0,
      "byteOffset": 80400,
      "componentType": 5125,
      "count": 1221,
      "type": "SCALAR"
    },
    {
      "bufferView": 2,
      "byteOffset": 175992,
      "componentType": 5126,
      "count": 277,
      "max": [
        265.0452575683594,
        475.2589111328125,
        2.0198705446942966e-13
      ],
      "min": [
        -41.665775299072266,
        -7.057643890380859,
        -18.648265838623047
      ],
      "type": "VEC3"
    },
    {
      "bufferView": 2,
      "byteOffset": 179316,
      "componentType": 5126,
      "count": 277,
      "max": [
        0.9755911231040955,
        1.0,
        1.0
      ],
      "min": [
        -0.9755906462669373,
        -0.9593843221664429,
        -1.0
      ],
      "type": "VEC3"
    },
    {
      "bufferView": 1,
      "byteOffset": 58664,
      "componentType": 5126,
      "count": 277,
      "max": [
        1.0,
        1.0
      ],
      "min": [
        0.0,
        0.0
      ],
      "type": "VEC2"
    },
    {
      "bufferView": 0,
      "byteOffset": 85284,
      "componentType": 5125,
      "count": 1221,
      "type": "SCALAR"
    },
    {
      "bufferView": 2,
      "byteOffset": 182640,
      "componentType": 5126,
      "count": 24,
      "max": [
        153.60682678222656,
        74.22265625,
        435.8581848144531
      ],
      "min": [
        -73.93091583251953,
        3.6868013730828556e-29,
        -435.8581848144531
      ],
      "type": "VEC3"
    },
    {
      "bufferView": 2,
      "byteOffset": 182928,
      "componentType": 5126,
      "count": 24,
      "max": [
        1.0,
        1.0,
        0.8143331408500671
      ],
      "min": [
        -0.9999986290931702,
        -1.0,
        -0.8208467364311218
      ],
      "type": "VEC3"
    },
    {
      "bufferView": 1,
      "byteOffset": 60880,
      "componentType": 5126,
      "count": 24,
      "max": [
        1.0,
        1.0
      ],
      "min": [
        0.25935012102127075,
        0.0
      ],
      "type": "VEC2"
    },
    {
      "bufferView": 0,
      "byteOffset": 90168,
      "componentType": 5125,
      "count": 36,
      "type": "SCALAR"
    },
    {
      "bufferView": 2,
      "byteOffset": 183216,
      "componentType": 5126,
      "count": 333,
      "max": [
        41.665775299072266,
        475.2589111328125,
        18.648265838623047
      ],
      "min": [
        -265.0452575683594,
        -7.057643890380859,
        -68.7421875
      ],
      "type": "VEC3"
    },
    {
      "bufferView": 2,
      "byteOffset": 187212,
      "componentType": 5126,
      "count": 333,
      "max": [
        0.999872624874115,
        1.0,
        1.0
      ],
      "min": [
        -0.9998726844787598,
        -0.9809637665748596,
        -1.0
      ],
      "type": "VEC3"
    },
    {
      "bufferView": 1,
      "byteOffset": 61072,
      "componentType": 5126,
      "count": 333,
      "max": [
        1.0,
        1.0
      ],
      "min": [
        0.0,
        0.0
      ],
      "type": "VEC2"
    },
    {
      "bufferView": 0,
      "byteOffset": 90312,
      "componentType": 5125,
      "count": 1425,
      "type": "SCALAR"
    },
    {
      "bufferView": 2,
      "byteOffset": 191208,
      "componentType": 5126,
      "count": 322,
      "max": [
        265.0452575683594,
        475.2589111328125,
        18.648265838623047
      ],
      "min": [
        -41.665775299072266,
        -7.057643890380859,
        -68.8695297241211
      ],
      "type": "VEC3"
    },
    {
      "bufferView": 2,
      "byteOffset": 195072,
      "componentType": 5126,
      "count": 322,
      "max": [
        0.9998726844787598,
        0.9809637665748596,
        1.0
      ],
      "min": [
        -0.999872624874115,
        -1.0,
        -1.0
      ],
      "type": "VEC3"
    },
    {
      "bufferView": 1,
      "byteOffset": 63736,
      "componentType": 5126,
      "count": 322,
      "max": [
        1.0,
        1.0
      ],
      "min": [
        0.0,
        0.0
      ],
      "type": "VEC2"
    },
    {
      "bufferView": 0,
      "byteOffset": 96012,
      "componentType": 5125,
      "count": 1425,
      "type": "SCALAR"
    }
  ],
  "asset": {
    "extras": {
      "author": "Designed By Jonathan (https://sketchfab.com/designedbyjonathan)",
      "license": "CC-BY-4.0 (http://creativecommons.org/licenses/by/4.0/)",
      "source": "https://sketchfab.com/3d-models/low-poly-mcdonalds-fast-food-sign-a3aa2aba55ac4777a0d97d1dae3f57ad",
      "title": "Low Poly McDonalds Fast Food Sign"
    },
    "generator": "Sketchfab-11.53.0",
    "version": "2.0"
  },
  "bufferViews": [
    {
      "buffer": 0,
      "byteLength": 101712,
      "name": "floatBufferViews",
      "target": 34963
    },
    {
      "buffer": 0,
      "byteLength": 66312,
      "byteOffset": 101712,
      "byteStride": 8,
      "name": "floatBufferViews",
      "target": 34962
    },
    {
      "buffer": 0,
      "byteLength": 198936,
      "byteOffset": 168024,
      "byteStride": 12,
      "name": "floatBufferViews",
      "target": 34962
    }
  ],
  "buffers": [
    {
      "byteLength": 366960,
      "uri": "scene.bin"
    }
  ],
  "extensionsUsed": [
    "KHR_materials_clearcoat"
  ],
  "materials": [
    {
      "doubleSided": true,
      "extensions": {
        "KHR_materials_clearcoat": {
          "clearcoatFactor": 0.5063651909557286,
          "clearcoatRoughnessFactor": 0.04
        }
      },
      "name": "material",
      "pbrMetallicRoughness": {
        "metallicFactor": 0.0,
        "roughnessFactor": 0.18354550636519096
      }
    },
    {
      "doubleSided": true,
      "extensions": {
        "KHR_materials_clearcoat": {
          "clearcoatFactor": 0.49420482614478434,
          "clearcoatRoughnessFactor": 0.04
        }
      },
      "name": "Mat_0",
      "pbrMetallicRoughness": {
        "baseColorFactor": [
          1.0,
          0.866667,
          0.0,
          1.0
        ],
        "metallicFactor": 0.0,
        "roughnessFactor": 0.2017860535816074
      }
    },
    {
      "doubleSided": true,
      "extensions": {
        "KHR_materials_clearcoat": {
          "clearcoatFactor": 0.518525555766673,
          "clearcoatRoughnessFactor": 0.04
        }
      },
      "name": "Mat_1",
      "pbrMetallicRoughness": {
        "baseColorFactor": [
          1.0,
          0.0,
          0.0,
          1.0
        ],
        "metallicFactor": 0.0,
        "roughnessFactor": 0.1896256887706631
      }
    }
  ],
  "meshes": [
    {
      "name": "Extrude_1_Mat_0",
      "primitives": [
        {
          "attributes": {
            "NORMAL": 1,
            "POSITION": 0,
            "TEXCOORD_0": 2
          },
          "indices": 3,
          "material": 0,
          "mode": 4
        }
      ]
    },
    {
      "name": "Extrude_Mat_0",
      "primitives": [
        {
          "attributes": {
            "NORMAL": 5,
            "POSITION": 4,
            "TEXCOORD_0": 6
          },
          "indices": 7,
          "material": 0,
          "mode": 4
        }
      ]
    },
    {
      "name": "Cylinder_3_Mat_0",
      "primitives": [
        {
          "attributes": {
            "NORMAL": 9,
            "POSITION": 8,
            "TEXCOORD_0": 10
          },
          "indices": 11,
          "material": 1,
          "mode": 4
        }
      ]
    },
    {
      "name": "Cylinder_2_Mat_0",
      "primitives": [
        {
          "attributes": {
            "NORMAL": 13,
            "POSITION": 12,
            "TEXCOORD_0": 14
          },
          "indices": 15,
          "material": 1,
          "mode": 4
        }
      ]
    },
    {
      "name": "Plane_Mat_0",
      "primitives": [
        {
          "attributes": {
            "NORMAL": 17,
            "POSITION": 16,
            "TEXCOORD_0": 18
          },
          "indices": 19,
          "material": 2,
          "mode": 4
        }
      ]
    },
    {
      "name": "Cylinder_1_Mat_0",
      "primitives": [
        {
          "attributes": {
            "NORMAL": 21,
            "POSITION": 20,
            "TEXCOORD_0": 22
          },
          "indices": 23,
          "material": 1,
          "mode": 4
        }
      ]
    },
    {
      "name": "Cylinder_Mat_0",
      "primitives": [
        {
          "attributes": {
            "NORMAL": 25,
            "POSITION": 24,
            "TEXCOORD_0": 26
          },
          "indices": 27,
          "material": 1,
          "mode": 4
        }
      ]
    }
  ],
  "nodes": [
    {
      "children": [
        1
      ],
      "matrix": [
        1.0,
        0.0,
        0.0,
        0.0,
        0.0,
        2.220446049250313e-16,
        -1.0,
        0.0,
        0.0,
        1.0,
        2.220446049250313e-16,
        0.0,
        0.0,
        0.0,
        0.0,
        1.0
      ],
      "name": "Sketchfab_model"
    },
    {
      "children": [
        2
      ],
      "matrix": [
        1.0,
        0.0,
        0.0,
        0.0,
        0.0,
        0.0,
        1.0,
        0.0,
        0.0,
        -1.0,
        0.0,
        0.0,
        0.0,
        0.0,
        0.0,
        1.0
      ],
      "name": "de865d6447064f029b824f80aecc9013.fbx"
    },
    {
      "children": [
        3,
        5,
        7,
        9,
        11,
        13,
        15,
        17
      ],
      "name": "RootNode"
    },
    {
      "children": [
        4
      ],
      "matrix": [
        -0.5202917587922247,
        -0.2864634716799559,
        0.8045092697576335,
        0.0,
        -0.1555640935233789,
        0.9580911644478657,
        0.24054341274119792,
        0.0,
        -0.8397001241747812,
        8.326672684688674e-17,
        -0.5430503673333231,
        0.0,
        825.8853149414063,
        718.2340087890625,
        -1172.70361328125,
        1.0
      ],
      "name": "CINEMA_4D_Editor"
    },
    {
      "name": "Object_4"
    },
    {
      "children": [
        6
      ],
      "matrix": [
        1.0,
        0.0,
        0.0,
        0.0,
        0.0,
        1.0,
        0.0,
        0.0,
        0.0,
        0.0,
        1.0,
        0.0,
        73.23753356933594,
        124.59838104248047,
        -11.401525497436523,
        1.0
      ],
      "name": "Extrude_1"
    },
    {
      "mesh": 0,
      "name": "Extrude_1_Mat_0"
    },
    {
      "children": [
        8
      ],
      "matrix": [
        1.0,
        0.0,
        0.0,
        0.0,
        0.0,
        1.0,
        0.0,
        0.0,
        0.0,
        0.0,
        1.0,
        0.0,
        -68.5281982421875,
        118.82633209228516,
        0.0,
        1.0
      ],
      "name": "Extrude"
    },
    {
      "mesh": 1,
      "name": "Extrude_Mat_0"
    },
    {
      "children": [
        10
      ],
      "matrix": [
        1.0,
        0.0,
        0.0,
        0.0,
        0.0,
        1.0,
        0.0,
        0.0,
        0.0,
        0.0,
        1.0,
        0.0,
        241.1265869140625,
        158.99179077148438,
        34.56821823120117,
        1.0
      ],
      "name": "Cylinder_3"
    },
    {
      "mesh": 2,
      "name": "Cylinder_3_Mat_0"
    },
    {
      "children": [
        12
      ],
      "matrix": [
        1.0,
        0.0,
        0.0,
        0.0,
        0.0,
        1.0,
        0.0,
        0.0,
        0.0,
        0.0,
        1.0,
        0.0,
        -244.31700134277344,
        158.99179077148438,
        34.56821823120117,
        1.0
      ],
      "name": "Cylinder_2"
    },
    {
      "mesh": 3,
      "name": "Cylinder_2_Mat_0"
    },
    {
      "children": [
        14
      ],
      "matrix": [
        0.0,
        -1.0,
        0.0,
        0.0,
        0.0,
        0.0,
        -1.0,
        0.0,
        1.0,
        0.0,
        0.0,
        0.0,
        -2.267014741897583,
        156.49075317382813,
        101.56532287597656,
        1.0
      ],
      "name": "Plane"
    },
    {
      "mesh": 4,
      "name": "Plane_Mat_0"
    },
    {
      "children": [
        16
      ],
      "matrix": [
        1.0,
        0.0,
        0.0,
        0.0,
        0.0,
        1.0,
        0.0,
        0.0,
        0.0,
        0.0,
        1.0,
        0.0,
        241.1265869140625,
        158.99179077148438,
        101.15849304199219,
        1.0
      ],
      "name": "Cylinder_1"
    },
    {
      "mesh": 5,
      "name": "Cylinder_1_Mat_0"
    },
    {
      "children": [
        18
      ],
      "matrix": [
        1.0,
        0.0,
        0.0,
        0.0,
        0.0,
        1.0,
        0.0,
        0.0,
        0.0,
        0.0,
        1.0,
        0.0,
        -244.31700134277344,
        158.99179077148438,
        101.15849304199219,
        1.0
      ],
      "name": "Cylinder"
    },
    {
      "mesh": 6,
      "name": "Cylinder_Mat_0"
    }
  ],
  "scene": 0,
  "scenes": [
    {
      "name": "Sketchfab_Scene",
      "nodes": [
        0
      ]
    }
  ]
}
